<svg width="20" height="20" viewBox="0 0 20 20" fill="none" xmlns="http://www.w3.org/2000/svg">
<path d="M8 14H12C12.2833 14 12.521 13.904 12.713 13.712C12.905 13.52 13.0007 13.2827 13 13V11H11V12H9V8H11V9H13V7C13 6.71667 12.904 6.47933 12.712 6.288C12.52 6.09667 12.2827 6.00067 12 6H8C7.71667 6 7.47933 6.096 7.288 6.288C7.09667 6.48 7.00067 6.71733 7 7V13C7 13.2833 7.096 13.521 7.288 13.713C7.48 13.905 7.71733 14.0007 8 14ZM10 20C8.61667 20 7.31667 19.7373 6.1 19.212C4.88333 18.6867 3.825 17.9743 2.925 17.075C2.025 16.175 1.31267 15.1167 0.788 13.9C0.263333 12.6833 0.000666667 11.3833 0 10C0 8.61667 0.262667 7.31667 0.788 6.1C1.31333 4.88333 2.02567 3.825 2.925 2.925C3.825 2.025 4.88333 1.31267 6.1 0.788C7.31667 0.263333 8.61667 0.000666667 10 0C11.3833 0 12.6833 0.262667 13.9 0.788C15.1167 1.31333 16.175 2.02567 17.075 2.925C17.975 3.825 18.6877 4.88333 19.213 6.1C19.7383 7.31667 20.0007 8.61667 20 10C20 11.3833 19.7373 12.6833 19.212 13.9C18.6867 15.1167 17.9743 16.175 17.075 17.075C16.175 17.975 15.1167 18.6877 13.9 19.213C12.6833 19.7383 11.3833 20.0007 10 20ZM10 18C12.2333 18 14.125 17.225 15.675 15.675C17.225 14.125 18 12.2333 18 10C18 7.76667 17.225 5.875 15.675 4.325C14.125 2.775 12.2333 2 10 2C7.76667 2 5.875 2.775 4.325 4.325C2.775 5.875 2 7.76667 2 10C2 12.2333 2.775 14.125 4.325 15.675C5.875 17.225 7.76667 18 10 18Z" fill="white"/>
</svg>
